<svg xmlns="http://www.w3.org/2000/svg" xmlns:xlink="http://www.w3.org/1999/xlink" width="30" height="56" viewBox="0 0 30 56">
    <defs>
        <path id="a" d="M0 .013h29.96v55.729H0z"/>
    </defs>
    <g fill="none" fill-rule="evenodd">
        <g transform="translate(0 .245)">
            <mask id="b" fill="#fff">
                <use xlink:href="#a"/>
            </mask>
            <path fill="#E20714" d="M9.839.013h10.317c1.452 0 2.506.888 2.56 2.181v9.28c-.245 1.423-1.209 2.076-2.56 2.082H9.839c-1.357.024-2.373-.67-2.599-2.083V2.194C7.455.722 8.41.004 9.84.014m0 14.852h10.317c1.452 0 2.506.887 2.56 2.183v9.278c-.245 1.424-1.209 2.076-2.56 2.083H9.839c-1.357.024-2.373-.668-2.599-2.083V17.05c.215-1.473 1.17-2.192 2.599-2.183M2.705 29.718h24.643c1.499-.1 2.666.94 2.61 2.49V53.23c.015 1.44-.853 2.523-2.61 2.502H2.705c-1.483.128-2.788-.913-2.7-2.502V32.21c-.013-1.687 1.078-2.532 2.7-2.491" mask="url(#b)"/>
        </g>
        <path fill="#FEFEFE" d="M16.366 2.052v1.431h-.987l-.153.038-.103.062-.064.1-.064.126-.038.188V10.602H16.62l.166-.037h.128l.09-.026.167-.101.166-.088.166-.1.129-.1.128-.15.102-.227.09-.189.063-.263.038-.125.065-.163v-.151l.025-.188.04-.201.024-.189.04-.226.038-.226h1.523v4.156h-9.653v-1.381H10.937l.192-.025.154-.063.101-.063.065-.1.039-.126.064-.189V4.034l-.064-.199-.039-.151-.065-.101-.101-.062-.154-.038h-.973V2.052zM15.085 22.228l-.908-2.962-.808 2.962h1.716zm-.385 4.633v-1.406H15.802l.103-.036.039-.026.025-.063.063-.101v-.313l-.026-.063-.062-.076v-.061l-.36-1.107h-2.74l-.32 1.018-.039.089-.025.06-.038.102V25.267l.038.063.065.063.064.026h.192l.166.036h.652v1.406H9.081v-1.406h.55l.193-.062.166-.063.128-.101.127-.163.104-.188.09-.226.063-.252 2.74-7.495h3.635l2.407 7.495.102.316.09.288.102.2.102.126.091.063.166.026.166.036H20.884v1.406H14.7zM3.257 38.603V35.6l.332-.063.32-.063.295-.1.294-.087.256-.1.256-.126.23-.127.23-.161.167-.164.192-.189.129-.188.166-.226.127-.226.103-.214.09-.263.102-.29h3.738v15.732l.026.19v.162l.039.126.037.125.065.1.026.088.064.063.102.064.128.037.127.063.167.024.193.038h.192l.23.039h.755v3.088H3.257v-3.088H4.1l.232-.039h.191l.206-.038.153-.024.128-.063.14-.037.09-.064.065-.063.102-.125.063-.125.039-.19.026-.225.038-.226.026-.289v-9.754H3.257zm21.263 8.7v1.531l.038.164.038.163.026.126.04.088.024.1.066.1.062.063.102.026.129.062.127.038.128.024.167.038h.192l.23.039H26.708v3.088H17.57v-3.088h.806l.23-.039h.193l.204-.038.153-.024.142-.038.127-.062.09-.026.104-.063.062-.126.064-.138.065-.188.039-.188.025-.226.039-.25v-1.156h-7.029V43.8l7.182-10.785h4.455v11.237h2.188v3.05H24.52zm-9.063-3.051h4.455v-6.868l-4.455 6.868z"/>
    </g>
</svg>
